<?xml version="1.0" standalone="no"?>
<!DOCTYPE svg PUBLIC "-//W3C//DTD SVG 20010904//EN"
 "http://www.w3.org/TR/2001/REC-SVG-20010904/DTD/svg10.dtd">
<svg version="1.0" xmlns="http://www.w3.org/2000/svg"
 width="16.000000pt" height="16.000000pt" viewBox="0 0 16.000000 16.000000"
 preserveAspectRatio="xMidYMid meet">
<metadata>
Created by potrace 1.11, written by Peter Selinger 2001-2013
</metadata>
<g transform="translate(0.000000,16.000000) scale(0.017778,-0.017778)"
fill="#000000" stroke="none">
<path d="M432 791 c-18 -11 -12 -41 10 -55 14 -8 22 -7 35 7 29 29 -10 71 -45
48z"/>
<path d="M257 590 c-31 -25 -51 -75 -34 -87 20 -15 42 -9 45 12 8 41 46 58 80
37 17 -11 26 -72 18 -116 -5 -28 -12 -36 -37 -41 -23 -5 -29 -12 -27 -28 2
-11 12 -21 23 -23 33 -5 46 -34 44 -99 -3 -73 -11 -91 -43 -97 -28 -6 -56 17
-56 44 0 19 -34 30 -48 16 -19 -19 10 -81 45 -97 62 -28 126 -2 143 58 14 50
12 141 -3 171 -10 20 -10 32 0 60 15 43 16 93 2 142 -17 63 -99 89 -152 48z"/>
<path d="M537 599 c-41 -24 -48 -61 -48 -244 1 -95 5 -185 10 -198 23 -59 107
-76 158 -33 25 22 28 31 31 105 6 131 -9 174 -66 190 -21 6 -38 5 -56 -4 l-26
-14 0 60 c0 71 12 99 43 99 30 0 44 -11 56 -42 15 -40 47 -31 44 13 -3 62 -88
102 -146 68z m93 -250 c15 -26 12 -162 -2 -181 -22 -26 -47 -29 -68 -8 -17 17
-20 34 -20 98 0 78 9 105 40 114 21 7 39 -1 50 -23z"/>
</g>
</svg>
